<svg xmlns="http://www.w3.org/2000/svg" xmlns:xlink="http://www.w3.org/1999/xlink" version="1.1" id="Layer_1" focusable="false" x="0px" y="0px" viewBox="0 0 21 16.8" style="enable-background:new 0 0 21 16.8;" xml:space="preserve">
<style type="text/css">
	.st0{fill:#FFFFFF;}
</style>
<path class="st0" d="M19.9,8.9l-3.6-1.4c-0.1-0.1-0.4-0.1-0.7,0l-3.6,1.4c-0.3,0.1-0.6,0.4-0.6,0.8c0,3.5,2.1,5.9,4.2,6.7  c0.3,0.1,0.6,0,0.7,0c1.6-0.6,4.2-2.8,4.2-6.7C20.5,9.3,20.3,9,19.9,8.9z M16,14.8V8.9l3,1.2C18.8,12.8,17.1,14.3,16,14.8L16,14.8z   M7.5,8.4c2.2,0,4-1.8,4-4s-1.8-4-4-4s-4,1.8-4,4S5.3,8.4,7.5,8.4z M10.5,9.6c0-0.1,0-0.1,0-0.2c-0.1,0-0.2,0-0.2,0H9.8  C9.1,9.7,8.3,9.9,7.5,9.9S5.9,9.7,5.2,9.4H4.7c-2.3,0-4.2,1.9-4.2,4.2v1.3c0,0.8,0.7,1.5,1.5,1.5h11c0.2,0,0.4,0,0.6-0.1  C11.9,14.9,10.5,12.6,10.5,9.6z"/>
</svg>