<?xml version="1.0" encoding="utf-8"?>
<!-- Generator: Adobe Illustrator 24.0.1, SVG Export Plug-In . SVG Version: 6.00 Build 0)  -->
<svg version="1.1" id="Layer_1" xmlns="http://www.w3.org/2000/svg" xmlns:xlink="http://www.w3.org/1999/xlink" x="0px" y="0px"
	 viewBox="0 0 12 12" style="enable-background:new 0 0 12 12;" xml:space="preserve">
<style type="text/css">
	.st0{fill:#007CAB;}
</style>
<g>
	<path class="st0" d="M6,4.2c0.5,0,1-0.4,1-1s-0.4-1-1-1s-1,0.4-1,1S5.5,4.2,6,4.2z"/>
	<polygon class="st0" points="6.7,4.8 4.8,4.8 4.8,5.7 5.2,5.7 5.3,8.5 4.8,8.5 4.8,9.5 7.2,9.5 7.2,8.5 6.8,8.5 	"/>
	<path class="st0" d="M6,0C2.7,0,0,2.7,0,6s2.7,6,6,6s6-2.7,6-6S9.3,0,6,0z M6,11c-2.8,0-5-2.3-5-5s2.3-5,5-5s5,2.3,5,5S8.8,11,6,11
		z"/>
</g>
</svg>
