<?xml version="1.0" encoding="utf-8"?>
<!-- Generator: Adobe Illustrator 24.0.1, SVG Export Plug-In . SVG Version: 6.00 Build 0)  -->
<svg version="1.1" id="Layer_1" xmlns="http://www.w3.org/2000/svg" xmlns:xlink="http://www.w3.org/1999/xlink" x="0px" y="0px"
	 viewBox="0 0 22 22" style="enable-background:new 0 0 22 22;" xml:space="preserve">
<style type="text/css">
	.st0{fill:#007CBA;}
	.st1{fill:#FFFFFF;}
</style>
<rect class="st0" width="22" height="22"/>
<g>
	<path class="st1" d="M10.3,11.7c-0.6-0.2-1.1-0.3-1.6-0.6c-0.5-0.2-1-0.5-1.4-0.8c-0.4-0.3-0.7-0.7-1-1.2C6.1,8.6,6,8,6,7.3
		c0-0.6,0.1-1.2,0.4-1.7c0.2-0.5,0.6-0.9,0.9-1.3C7.7,4,8.1,3.7,8.6,3.5c0.5-0.2,1.1-0.3,1.6-0.4V1.7h1.1v1.5c0.7,0,1.5,0.2,2.3,0.4
		c0.8,0.3,1.4,0.7,2,1.2l-1.5,1.4c-0.3-0.4-0.7-0.7-1.3-0.9c-0.5-0.2-1-0.3-1.5-0.3v5.1c0.5,0.2,1.1,0.4,1.6,0.6
		c0.5,0.2,1,0.5,1.4,0.9c0.4,0.4,0.8,0.8,1,1.3c0.3,0.5,0.4,1.1,0.4,1.8c0,0.7-0.1,1.3-0.4,1.8c-0.2,0.5-0.6,1-1,1.4
		c-0.4,0.4-0.9,0.7-1.4,0.8c-0.5,0.2-1.1,0.3-1.7,0.3v1.5h-1.1v-1.5c-1,0-1.8-0.2-2.7-0.6s-1.5-0.9-2.1-1.5l1.6-1.3
		c0.2,0.3,0.4,0.5,0.7,0.7c0.3,0.2,0.5,0.4,0.8,0.5c0.3,0.2,0.6,0.3,0.9,0.3c0.3,0.1,0.6,0.1,0.8,0.1V11.7z M10.3,4.8
		c-0.6,0-1.2,0.3-1.6,0.7C8.3,5.9,8,6.5,8,7.2c0,0.7,0.2,1.2,0.6,1.6c0.4,0.4,1,0.6,1.6,0.8V4.8z M11.4,17.1c0.3,0,0.6-0.1,0.9-0.2
		c0.3-0.1,0.5-0.3,0.8-0.5c0.2-0.2,0.4-0.5,0.5-0.8c0.1-0.3,0.2-0.7,0.2-1.1c0-0.7-0.2-1.2-0.7-1.6c-0.5-0.4-1-0.7-1.7-0.9V17.1z"/>
</g>
</svg>
